<svg id="Layer_1" data-name="Layer 1" xmlns="http://www.w3.org/2000/svg" viewBox="0 0 582.28 582.28"><defs><style>.cls-1{fill:#07a717;}.cls-2{fill:#8c5d42;}</style></defs><title>persoon</title><path class="cls-1" d="M240.53,247.35c-11.76-2.39-23.34,4.23-33.11,11.21-9.37,6.69-18.37,14-26,22.64-18.75,21.27-28.07,49.53-31.14,77.72s-.34,56.64,2.38,84.86c.58,6,1.93,13.08,7.47,15.42,2.55,1.07,5.44.83,8.18.48,16.15-2.06,31.75-7.1,47.59-10.89a314.35,314.35,0,0,1,122.77-4.64c20.28,3.26,40.9,8.53,61.1,4.77,9.32-1.74,18.73-5.75,24.32-13.42,5.39-7.41,6.44-17,7.24-26.14,1.72-19.63,3.1-39.45.66-59s-8.92-39-21.43-54.26C397.4,280,378.24,269.63,358.19,264.2s-41.09-6.2-61.85-5.53"/><path class="cls-2" d="M316.33,94.34c15.79,5.42,32.68,5.84,44.23,17.89,1.66,1.73,1.47,2,2.18,4.34.78,2.53-.26,15.63-.59,18.26-2,15.69.77,31.57.58,47.39s-4.06,32.85-16.15,43.05c-9.45,8-23.73,11.87-27.71,23.58-2.94,8.66,1.23,18.3-.66,27.25-2.35,11.13-13.48,18.32-24.5,21.17-19.27,5-41.76-.67-54-16.39-13-16.66-12.3-40-8.65-60.86,3.33-19,8.61-37.5,13.88-56l9.29-32.65c1.81-6.37,3.68-12.86,7.41-18.34,4.59-6.76,11.63-11.41,18.62-15.65,5.74-3.5,11.76-6.9,18.42-7.86s14.14,1,18,6.48"/><path d="M336.11,195.61c-12.34-4.75-26.62,10.46-38.28,4.23-7.69-4.11-8.46-14.55-12-22.51s-10.88-14.94-10.68-23.73c.13-5.88,3.67-11,5.91-16.49a39,39,0,0,0,0-29.42c2.82-2,6.87,0,9,2.71s3.19,6.2,5.56,8.72c4.23,4.52,11.19,4.81,17.39,4.79l33.86-.13c3.61,0,7.31,0,10.69-1.33s6.41-4.11,6.87-7.69c.53-4.18-2.4-7.92-5.15-11.11L344,86.07C338.28,79.4,332.41,72.62,324.92,68c-16.25-10.06-37.77-8.19-54.92.26s-30.76,22.56-43.43,36.87c-5.45,6.16-11,12.73-12.88,20.73-1.84,7.71-.07,15.77,1.75,23.48q8.42,35.7,18.52,71c.76,2.67,2.18,5.87,5,6,2.53.08,4.2-2.56,5.24-4.87a106.47,106.47,0,0,0,8.26-57.1c-.56-4.23-.71-9.75,3.23-11.4,2.41-1,5.31.22,7,2.25s2.32,4.67,2.81,7.24c4,21.14-.77,44.21,8.6,63.58A47.13,47.13,0,0,0,357,229.53c3.58-6,5.77-12.74,7.92-19.4,1-3.18,2.05-6.57,1.2-9.79-1.7-6.43-9.62-8.74-16.26-9a70.78,70.78,0,0,0-29.9,5.42"/></svg>