<svg id="Layer_1" data-name="Layer 1" xmlns="http://www.w3.org/2000/svg" viewBox="0 0 582.28 582.28"><defs><style>.cls-1{fill:#007b8d;}.cls-2{fill:#ffe0bd;}.cls-3{fill:#8c5d42;}</style></defs><title>persoon</title><path class="cls-1" d="M245.1,267.47c-35.18-2.54-65.47,0-95.15,19.09-16,10.26-30.42,31.88-31.35,62.71a291,291,0,0,0,10.84,86.42c4.11,14.69,27.49,20.11,41.6,14.36,8.74-3.56,16.62-8.87,25.13-12.95,18.93-9.09,40.89-8.38,61.86-7.49,40.5,1.73,81.13,3.48,121.06,10.44,17.81,3.11,37.25,7,53.08-1.71,18.65-10.26,24.79-33.72,28.27-54.71,3.65-22,6.22-45.38-2.7-65.79-8.2-18.79-25.36-32.56-44.22-40.6s-39.45-11-59.84-13.07c-36.92-3.83-74.24-5.25-111.12-1.06"/><path class="cls-2" d="M251.93,202c0,.08-7.2-46.5-6-49.27,5.75-13.14,23.05-51.56,30.38-50.42,32.24,5,107.25,14.33,107,16.14-2.88,21.64-3.45,50.8-4.25,70.54-.72,17.75-2.22,39.06-17.83,47.56-4,2.18-9,3.58-11,7.68-5.11,10.54,15.6,19.4,12.59,30.72a14.85,14.85,0,0,1-3.4,5.64,76.92,76.92,0,0,1-116.84.4c-4-4.63-7.51-11.51-4-16.54,1.23-1.77,3.13-2.92,4.85-4.21,13.26-9.9,18.3-44.91,8.48-58.24"/><path class="cls-3" d="M313.11,110.18,371,118.35c9.81,1.39,23.38.17,24.8-9.63,1-6.67-5-12.12-10.57-15.93A207.71,207.71,0,0,0,344.12,71c-8.7-3.43-17.84-6.31-27.19-6.07-15,.39-28.55,8.66-41.26,16.68L252.72,96c-5.3,3.34-10.69,6.77-14.65,11.62-4.4,5.39-6.72,12.21-7.93,19.06-4.58,26.05,5.88,52.15,16.13,76.54,2.53,6,6.92,13.17,13.38,12.23s8.7-10,6.23-16.12-7.69-10.83-10.6-16.8a25.72,25.72,0,0,1,5.71-29.5,25,25,0,0,1,5.51,13.45c9.92-1.38,12.85-14.37,11.93-24.34s-2.6-21.83,5-28.37c9.62-8.3,24.63-.3,37.07-2.88"/></svg>