<svg id="Layer_1" data-name="Layer 1" xmlns="http://www.w3.org/2000/svg" viewBox="0 0 582.28 582.28"><defs><style>.cls-1{fill:#e84321;}.cls-2{fill:#ffe0bd;}.cls-3{fill:#8c5d42;}</style></defs><title>persoon</title><path class="cls-1" d="M260.18,285.1l34-15.41c10.15,15.6,21.59,32.22,39.22,38.18,6.24,2.12,12.89,2.72,19.46,3.31l46,4.13c23.3,2.09,48.78,5.19,64.89,22.16,6.91,7.27,11.39,16.5,15.08,25.82,6.67,16.88,11.07,34.54,15.45,52.15,2,8.13,3.88,17.35-.7,24.36-3.51,5.38-9.93,8-16,10a260.28,260.28,0,0,1-115.61,11.45c-16.89-2.17-33.58-6-50.57-7.14-16.78-1.13-33.61.38-50.37,1.77C206.3,460.44,148.39,463.12,99.62,438c-3.91-2-7.85-4.3-10.46-7.84-4.63-6.28-4-15.28-.4-22.22s9.52-12.31,15.35-17.5l31.83-28.33c14.12-12.56,29.56-28.55,26.65-47.23-.55-3.57-1.67-7.64.57-10.47a10.79,10.79,0,0,1,3.78-2.64C180,295.19,193.15,288.6,207,283.94a146.55,146.55,0,0,1,43.36-7.68c6.18-.13,14.7,3,13.11,9"/><path class="cls-2" d="M254.7,142c10.77,9.15,21.93,18.84,27.14,32,4.16,10.5,4.07,22.16,3.42,33.44q-.92,15.65-3.11,31.19c-1.74,12.29-4.17,24.76-10.27,35.57s-16.47,19.85-28.77,21.51c-17.32,2.34-35.64-9.85-51.63-2.8-5,2.22-9.38,6.24-14.83,6.93-1.67.22-3.59,0-4.7-1.27-1-1.12-1.06-2.72-1.14-4.21a98.67,98.67,0,0,0-5.46-27.5c-6.46-18.28-18.53-36.23-15-55.3,2.4-13,11.74-23.55,21.2-32.8,11.32-11.06,23.56-21.47,37.81-28.33s30.79-9.94,46.09-5.92c1,.26,2.08,1.71,1.08,2"/><path class="cls-3" d="M216.78,165.72c7.08,1.2,26.59-6,43.82-11.39,2.46-.76,5.1-1.78,6.4-4a9.39,9.39,0,0,0,1-4.77c.07-14.38-9.87-27.62-22.71-34.09s-28-7-42.15-4.22c-2.23.43-5,.71-6.28-1.2-1-1.5-.31-3.48.41-5.11,5.41-12.13,13.79-24.32,11.54-37.4a30.82,30.82,0,0,0-4.57-11.24c-8.66-13.6-24.94-21.19-41-21.89s-32,4.76-46,12.73c-5.87,3.34-11.61,7.23-15.62,12.66-4.91,6.64-6.84,15-7.36,23.28-1.07,17.11,3.94,35.08,15.93,47.33,4,4.1,8.87,9.06,14.58,9.56,3.69.32,8.06.58,11.6-.5,10.36-3.16,21.24-9.16,30.73-14.38,6.69-3.69,12.47-8.92,20-7.76-2.87,5.84-8.75,3.74-14.27,7.17-10.59,6.58-28.16,9.46-37,18.29s-9.14,29.75-9.63,42c-.28,7.08,2,14,4.4,20.65,8.93,25,19.58,49.52,33.4,72.21,2.12,3.48,4.45,7.06,8,9.11s8.59,2.08,11.21-1c2.76-3.29,1.66-8.46-.94-11.88s-6.35-5.76-9.39-8.78c-6.12-6.1-9-14.63-11.75-22.83-1.08-3.27-2.18-6.63-1.93-10.06s2.19-7,5.45-8.05c4.48-1.49,10.78,1.53,13.38-2.41a7.79,7.79,0,0,0,1-3.76c.71-9,.11-18.32,3.17-26.82,5-13.8,19.83-24.27,34.65-21.42"/></svg>