<?xml version="1.0" encoding="utf-8"?>
<!-- Generator: Adobe Illustrator 23.1.0, SVG Export Plug-In . SVG Version: 6.00 Build 0)  -->
<svg version="1.1" id="Layer_1" xmlns="http://www.w3.org/2000/svg" xmlns:xlink="http://www.w3.org/1999/xlink" x="0px" y="0px"
	 viewBox="0 0 582.3 582.3" style="enable-background:new 0 0 582.3 582.3;" xml:space="preserve">
<style type="text/css">
	.st0{fill:#E84321;}
	.st1{fill:#FFE0BD;}
	.st2{fill:#8C5D42;}
</style>
<title>persoon</title>
<path class="st0" d="M318.8,285.3c-1.6-6,6.9-9.1,13.1-9c14.8,0.4,29.4,3,43.4,7.7c13.9,4.7,27,11.3,40.1,17.8
	c1.4,0.6,2.7,1.5,3.8,2.6c2.2,2.8,1.1,6.9,0.6,10.5c-2.9,18.7,12.5,34.7,26.6,47.2l31.8,28.3c5.8,5.2,11.8,10.6,15.3,17.5
	c3.6,6.9,4.2,15.9-0.4,22.2c-2.6,3.5-6.5,5.8-10.5,7.8c-48.8,25.1-106.7,22.4-161.4,17.9c-16.8-1.4-33.6-2.9-50.4-1.8
	c-17,1.1-33.7,5-50.6,7.1c-38.9,4.9-78.4,1-115.6-11.5c-6.1-2-12.5-4.6-16-10c-4.6-7-2.7-16.2-0.7-24.4c4.4-17.6,8.8-35.3,15.5-52.1
	c3.7-9.3,8.2-18.6,15.1-25.8c16.1-17,41.6-20.1,64.9-22.2l46-4.1c6.6-0.6,13.2-1.2,19.5-3.3c17.6-6,29.1-22.6,39.2-38.2l34,15.4"/>
<path class="st1" d="M325.8,146.5c-1-0.3,0.1-1.7,1.1-2c15.3-4,31.8-0.9,46.1,5.9s26.5,17.3,37.8,28.3c9.5,9.3,18.8,19.8,21.2,32.8
	c3.5,19.1-8.5,37-15,55.3c-3.1,8.9-5,18.1-5.5,27.5c-0.1,1.5-0.1,3.1-1.1,4.2c-1.1,1.3-3,1.5-4.7,1.3c-5.4-0.7-9.8-4.7-14.8-6.9
	c-16-7.1-34.3,5.1-51.6,2.8c-12.3-1.7-22.7-10.7-28.8-21.5s-8.5-23.3-10.3-35.6c-1.5-10.4-2.5-20.8-3.1-31.2
	c-0.6-11.3-0.7-22.9,3.4-33.4c5.2-13.2,16.4-22.9,27.1-32"/>
<path class="st2" d="M365.4,165.7c14.8-2.9,29.6,7.6,34.6,21.4c3.1,8.5,2.5,17.8,3.2,26.8c0,1.3,0.4,2.6,1,3.8
	c2.6,3.9,8.9,0.9,13.4,2.4c3.3,1.1,5.2,4.6,5.4,8.1s-0.8,6.8-1.9,10.1c-2.8,8.2-5.6,16.7-11.8,22.8c-3,3-6.8,5.4-9.4,8.8
	s-3.7,8.6-0.9,11.9c2.6,3.1,7.7,3,11.2,1c3.6-2,5.9-5.6,8-9.1c13.8-22.7,24.5-47.2,33.4-72.2c2.4-6.6,4.7-13.6,4.4-20.6
	c-0.5-12.3-0.8-33.2-9.6-42s-26.4-11.7-37-18.3c-5.5-3.4-11.4-1.3-14.3-7.2c7.5-1.2,13.3,4.1,20,7.8c9.5,5.2,20.4,11.2,30.7,14.4
	c3.5,1.1,7.9,0.8,11.6,0.5c5.7-0.5,10.6-5.5,14.6-9.6c12-12.3,17-30.2,15.9-47.3c-0.5-8.3-2.4-16.6-7.4-23.3
	c-4-5.4-9.8-9.3-15.6-12.7c-14-8-29.9-13.4-46-12.7s-32.3,8.3-41,21.9c-2.3,3.4-3.8,7.2-4.6,11.2c-2.3,13.1,6.1,25.3,11.5,37.4
	c0.7,1.6,1.4,3.6,0.4,5.1c-1.3,1.9-4,1.6-6.3,1.2c-14.1-2.8-29.3-2.2-42.1,4.2s-22.8,19.7-22.7,34.1c-0.1,1.7,0.3,3.3,1,4.8
	c1.3,2.2,3.9,3.2,6.4,4C338.9,159.7,358.4,166.9,365.4,165.7"/>
</svg>
