<?xml version="1.0" encoding="utf-8"?>
<!-- Generator: Adobe Illustrator 23.1.0, SVG Export Plug-In . SVG Version: 6.00 Build 0)  -->
<svg version="1.1" id="Layer_1" xmlns="http://www.w3.org/2000/svg" xmlns:xlink="http://www.w3.org/1999/xlink" x="0px" y="0px"
	 viewBox="0 0 582.3 582.3" style="enable-background:new 0 0 582.3 582.3;" xml:space="preserve">
<style type="text/css">
	.st0{fill:#07A717;}
	.st1{fill:#8C5D42;}
</style>
<title>persoon</title>
<path class="st0" d="M285.9,258.7c-20.8-0.7-41.8,0.1-61.9,5.5s-39.2,15.8-52.4,31.9c-12.5,15.3-19,34.7-21.4,54.3s-1.1,39.4,0.7,59
	c0.8,9.1,1.8,18.7,7.2,26.1c5.6,7.7,15,11.7,24.3,13.4c20.2,3.8,40.8-1.5,61.1-4.8c40.8-6.5,82.6-5,122.8,4.6
	c15.8,3.8,31.4,8.8,47.6,10.9c2.7,0.3,5.6,0.6,8.2-0.5c5.5-2.3,6.9-9.4,7.5-15.4c2.7-28.2,5.5-56.7,2.4-84.9s-12.4-56.5-31.1-77.7
	c-7.6-8.6-16.6-16-26-22.6c-9.8-7-21.4-13.6-33.1-11.2"/>
<path class="st1" d="M265.6,96c3.9-5.5,11.3-7.4,18-6.5s12.7,4.4,18.4,7.9c7,4.2,14,8.9,18.6,15.7c3.7,5.5,5.6,12,7.4,18.3l9.3,32.7
	c5.3,18.5,10.6,37,13.9,56c3.7,20.9,4.4,44.2-8.6,60.9c-12.2,15.7-34.7,21.4-54,16.4c-11-2.9-22.1-10-24.5-21.2
	c-1.9-8.9,2.3-18.6-0.7-27.2c-4-11.7-18.3-15.6-27.7-23.6c-12.1-10.2-16-27.2-16.1-43.1s2.6-31.7,0.6-47.4
	c-0.3-2.6-1.4-15.7-0.6-18.3c0.7-2.3,0.5-2.6,2.2-4.3c11.6-12.1,28.4-12.5,44.2-17.9"/>
<path d="M262.3,196.8c-9.5-4-19.7-5.8-29.9-5.4c-6.6,0.3-14.6,2.6-16.3,9c-0.8,3.2,0.2,6.6,1.2,9.8c2.2,6.7,4.3,13.4,7.9,19.4
	c4.7,7.9,11.6,14.3,19.9,18.3c23.4,11.4,51.6,1.6,63-21.8c9.4-19.4,4.6-42.4,8.6-63.6c0.5-2.6,1.1-5.2,2.8-7.2s4.6-3.3,7-2.3
	c3.9,1.6,3.8,7.2,3.2,11.4c-2.6,19.4,0.3,39.2,8.3,57.1c1,2.3,2.7,4.9,5.2,4.9c2.8-0.1,4.2-3.3,5-6c6.7-23.5,12.9-47.2,18.5-71
	c1.8-7.7,3.6-15.8,1.8-23.5c-1.9-8-7.4-14.6-12.9-20.7c-12.7-14.3-26.3-28.4-43.4-36.9s-38.7-10.3-54.9-0.3
	c-7.5,4.6-13.4,11.4-19.1,18.1L223,103.6c-2.8,3.2-5.7,6.9-5.1,11.1c0.5,3.6,3.5,6.4,6.9,7.7s7.1,1.3,10.7,1.3l33.9,0.1
	c6.2,0,13.2-0.3,17.4-4.8c2.4-2.5,3.4-6,5.6-8.7s6.2-4.7,9-2.7c-3.8,9.4-3.8,20,0,29.4c2.2,5.5,5.8,10.6,5.9,16.5
	c0.2,8.8-7.1,15.8-10.7,23.7s-4.3,18.4-12,22.5c-11.7,6.2-25.9-9-38.3-4.2"/>
</svg>
