<?xml version="1.0" encoding="utf-8"?>
<!-- Generator: Adobe Illustrator 23.1.0, SVG Export Plug-In . SVG Version: 6.00 Build 0)  -->
<svg version="1.1" id="Layer_1" xmlns="http://www.w3.org/2000/svg" xmlns:xlink="http://www.w3.org/1999/xlink" x="0px" y="0px"
	 viewBox="0 0 582.3 582.3" style="enable-background:new 0 0 582.3 582.3;" xml:space="preserve">
<style type="text/css">
	.st0{fill:#007B8D;}
	.st1{fill:#FFE0BD;}
	.st2{fill:#8C5D42;}
</style>
<title>persoon</title>
<path class="st0" d="M339.7,263.1c-36.9-4.2-74.2-2.8-111.1,1.1c-20.4,2.1-41,5-59.8,13.1s-36,21.8-44.2,40.6
	c-8.9,20.4-6.4,43.8-2.7,65.8c3.5,21,9.6,44.4,28.3,54.7c15.8,8.7,35.3,4.8,53.1,1.7c39.9-7,80.6-8.7,121.1-10.4
	c21-0.9,42.9-1.6,61.9,7.5c8.5,4.1,16.4,9.4,25.1,13c14.1,5.8,37.5,0.3,41.6-14.4c7.9-28.1,11.6-57.2,10.8-86.4
	c-0.9-30.8-15.3-52.4-31.3-62.7c-29.7-19.1-60-21.6-95.1-19.1"/>
<path class="st1" d="M330.4,202c-9.8,13.3-4.8,48.3,8.5,58.2c1.7,1.3,3.6,2.4,4.9,4.2c3.5,5,0,11.9-4,16.5c-2.6,3-5.4,5.8-8.4,8.4
	c-32.4,27.5-80.9,23.6-108.4-8.8c-1.5-1.6-2.7-3.5-3.4-5.6c-3-11.3,17.7-20.2,12.6-30.7c-2-4.1-7-5.5-11-7.7
	c-15.6-8.5-17.1-29.8-17.8-47.6c-0.8-19.7-1.4-48.9-4.3-70.5c-0.3-1.8,74.8-11.1,107-16.1c7.3-1.1,24.6,37.3,30.4,50.4
	C337.6,155.5,330.4,202.1,330.4,202"/>
<path class="st2" d="M261.8,110.9c12.4,2.6,27.5-5.4,37.1,2.9c7.6,6.5,5.9,18.4,5,28.4s2,23,11.9,24.3c0.5-4.9,2.4-9.6,5.5-13.4
	c8,7.6,10.3,19.5,5.7,29.5c-2.9,6-8.1,10.7-10.6,16.8s-0.2,15.2,6.2,16.1c6.5,0.9,10.9-6.2,13.4-12.2c10.3-24.4,20.7-50.5,16.1-76.5
	c-1.2-6.8-3.5-13.7-7.9-19.1c-4-4.9-9.4-8.3-14.6-11.6l-22.9-14.4c-12.7-8-26.3-16.3-41.3-16.7c-9.4-0.2-18.5,2.6-27.2,6.1
	c-14.5,5.7-28.3,13-41.1,21.8c-5.6,3.8-11.6,9.3-10.6,15.9c1.4,9.8,15,11,24.8,9.6l57.9-8.2"/>
</svg>
